<?xml version="1.0" ?><svg id="Layer_1" style="enable-background:new 0 0 64 64;" version="1.1" viewBox="0 0 64 64" xml:space="preserve" xmlns="http://www.w3.org/2000/svg" xmlns:xlink="http://www.w3.org/1999/xlink"><style type="text/css">
	.st0{fill:#D9DCE1;}
	.st1{fill:#56AAFF;}
	.st2{fill:#0478ED;}
	.st3{fill:#FFFFFF;}
	.st4{fill:none;stroke:#D9DCE1;stroke-width:4;stroke-miterlimit:10;}
	.st5{fill:none;stroke:#56AAFF;stroke-width:4;stroke-miterlimit:10;}
	.st6{fill:none;stroke:#FFFFFF;stroke-width:2;stroke-miterlimit:10;}
	.st7{fill:none;stroke:#D9DCE1;stroke-width:2;stroke-miterlimit:10;}
	.st8{fill:none;stroke:#0478ED;stroke-width:2;stroke-linejoin:round;stroke-miterlimit:10;}
	.st9{fill-rule:evenodd;clip-rule:evenodd;fill:#0478ED;}
	.st10{fill:none;stroke:#D9DCE1;stroke-width:4;stroke-linecap:round;stroke-linejoin:round;stroke-miterlimit:10;}
	.st11{fill:none;stroke:#D9DCE1;stroke-width:3;stroke-miterlimit:10;}
	.st12{fill:none;stroke:#0478ED;stroke-width:10.4595;stroke-linecap:square;stroke-miterlimit:10;}
	.st13{fill:none;stroke:#56AAFF;stroke-width:10.4595;stroke-linecap:square;stroke-miterlimit:10;}
	.st14{fill:none;stroke:#0478ED;stroke-width:2;stroke-linecap:square;stroke-linejoin:round;stroke-miterlimit:10;}
	.st15{fill-rule:evenodd;clip-rule:evenodd;fill:#D9DCE1;}
	.st16{fill-rule:evenodd;clip-rule:evenodd;fill:#56AAFF;}
	.st17{fill-rule:evenodd;clip-rule:evenodd;fill:#FFFFFF;}
	.st18{fill:none;stroke:#0478ED;stroke-width:3;stroke-linecap:round;stroke-linejoin:round;stroke-miterlimit:10;}
	.st19{fill:none;stroke:#D9DCE1;stroke-width:2;stroke-linejoin:round;stroke-miterlimit:10;}
	.st20{fill:#0478FF;}
	.st21{fill:none;stroke:#FFFFFF;stroke-width:2;stroke-miterlimit:10;stroke-dasharray:2,2;}
	.st22{fill:none;stroke:#0478ED;stroke-width:2;stroke-miterlimit:10;stroke-dasharray:2,2;}
	.st23{fill:none;stroke:#0478ED;stroke-width:2;stroke-miterlimit:10;}
	.st24{fill:none;stroke:#56AAFF;stroke-width:9.9179;stroke-linecap:round;stroke-miterlimit:10;}
	.st25{fill:none;stroke:#56AAFF;stroke-width:9.6325;stroke-linecap:round;stroke-miterlimit:10;}
	.st26{fill:none;stroke:#56AAFF;stroke-width:2;stroke-linecap:round;stroke-linejoin:round;stroke-miterlimit:10;}
	.st27{fill:none;stroke:#D9DCE1;stroke-width:4.5504;stroke-linecap:round;stroke-miterlimit:10;}
	.st28{fill:none;stroke:#D9DCE1;stroke-width:0.9448;stroke-linecap:round;stroke-linejoin:round;stroke-miterlimit:10;}
	.st29{fill:none;stroke:#FFFFFF;stroke-width:3.9835;stroke-linecap:round;stroke-miterlimit:10;}
	.st30{fill:none;stroke:#FFFFFF;stroke-width:0.8271;stroke-linecap:round;stroke-linejoin:round;stroke-miterlimit:10;}
	.st31{fill:none;stroke:#FFFFFF;stroke-width:4.524;stroke-linecap:round;stroke-miterlimit:10;}
	.st32{fill:none;stroke:#FFFFFF;stroke-width:0.9393;stroke-linecap:round;stroke-linejoin:round;stroke-miterlimit:10;}
</style><circle class="st0" cx="32" cy="32" r="24"/><polygon class="st1" points="58,43 6,43 12,32 6,21 58,21 52,32 "/><g><path class="st3" d="M21.4,29.2c-0.1,0.6-0.4,1.1-0.8,1.4c-0.4,0.3-0.9,0.5-1.4,0.5c-0.5,0-0.9-0.1-1.3-0.4   c-0.3-0.2-0.6-0.5-0.7-0.8c0-0.1-0.1-0.2-0.1-0.3c0-0.1-0.1-0.2-0.1-0.3c0-0.3-0.1-0.8-0.1-1.5c0-0.7,0-1.2,0.1-1.5   c0-0.3,0.1-0.5,0.2-0.6c0.2-0.3,0.4-0.6,0.7-0.8c0.3-0.2,0.8-0.4,1.3-0.4c0.6,0,1.1,0.2,1.5,0.5c0.4,0.4,0.6,0.8,0.7,1.3h-1   c-0.1-0.3-0.2-0.5-0.4-0.7c-0.2-0.2-0.5-0.3-0.8-0.3c-0.2,0-0.4,0.1-0.6,0.1c-0.2,0.1-0.3,0.2-0.4,0.3c-0.1,0.1-0.2,0.3-0.3,0.5   c0,0.2-0.1,0.7-0.1,1.3s0,1.1,0.1,1.3c0,0.2,0.1,0.4,0.3,0.5c0.1,0.1,0.2,0.2,0.4,0.3c0.2,0.1,0.4,0.1,0.6,0.1c0.5,0,1-0.3,1.2-0.9   H21.4z"/><path class="st3" d="M21.8,27.8c0-0.7,0-1.2,0.1-1.5c0-0.3,0.1-0.5,0.2-0.6c0.2-0.3,0.4-0.6,0.7-0.8c0.3-0.2,0.8-0.4,1.3-0.4   c0.5,0,0.9,0.1,1.3,0.4c0.3,0.2,0.6,0.5,0.7,0.8c0.1,0.2,0.2,0.4,0.2,0.6c0,0.3,0.1,0.8,0.1,1.5c0,0.7,0,1.2-0.1,1.5   c0,0.3-0.1,0.5-0.2,0.6c-0.1,0.3-0.4,0.6-0.7,0.8C25,30.9,24.6,31,24.1,31c-0.5,0-0.9-0.1-1.3-0.4c-0.3-0.2-0.6-0.5-0.7-0.8   c0-0.1-0.1-0.2-0.1-0.3c0-0.1-0.1-0.2-0.1-0.3C21.8,29,21.8,28.5,21.8,27.8z M22.8,27.8c0,0.6,0,1.1,0.1,1.3c0,0.2,0.1,0.4,0.3,0.5   c0.1,0.1,0.2,0.2,0.4,0.3c0.2,0.1,0.4,0.1,0.6,0.1c0.2,0,0.4,0,0.6-0.1c0.2-0.1,0.3-0.2,0.4-0.3c0.1-0.1,0.2-0.3,0.3-0.5   c0-0.2,0.1-0.6,0.1-1.3s0-1.1-0.1-1.3c0-0.2-0.1-0.4-0.3-0.5c-0.1-0.1-0.2-0.2-0.4-0.3c-0.2-0.1-0.4-0.1-0.6-0.1   c-0.2,0-0.4,0.1-0.6,0.1c-0.2,0.1-0.3,0.2-0.4,0.3c-0.1,0.1-0.2,0.3-0.3,0.5C22.8,26.7,22.8,27.1,22.8,27.8z"/><path class="st3" d="M27.5,24.5h0.9l1.8,4.2l1.8-4.2H33V31h-1v-4h0L30.7,30h-0.8L28.5,27h0v4h-1V24.5z"/><path class="st3" d="M34.4,24.5h1V31h-1V24.5z"/><path class="st3" d="M36.7,24.5h0.9l2.9,4.6h0v-4.6h1V31h-0.9l-2.9-4.6h0V31h-1V24.5z"/><path class="st3" d="M44.9,27.4h2.3v1.3c0,0.6-0.2,1.2-0.7,1.6c-0.4,0.4-1,0.7-1.6,0.7c-0.5,0-0.9-0.1-1.3-0.4   c-0.3-0.2-0.6-0.5-0.7-0.8c0-0.1-0.1-0.2-0.1-0.3c0-0.1-0.1-0.2-0.1-0.3c0-0.3-0.1-0.8-0.1-1.5c0-0.7,0-1.2,0.1-1.5   c0-0.3,0.1-0.5,0.2-0.6c0.2-0.3,0.4-0.6,0.7-0.8c0.3-0.2,0.8-0.4,1.3-0.4c0.6,0,1.1,0.2,1.5,0.5c0.4,0.4,0.6,0.8,0.7,1.3h-1   c-0.1-0.3-0.2-0.5-0.4-0.7c-0.2-0.2-0.5-0.3-0.8-0.3c-0.2,0-0.4,0.1-0.6,0.1c-0.2,0.1-0.3,0.2-0.4,0.3c-0.1,0.1-0.2,0.3-0.3,0.5   c0,0.2-0.1,0.7-0.1,1.3s0,1.1,0.1,1.3c0,0.2,0.1,0.4,0.3,0.5c0.1,0.1,0.2,0.2,0.4,0.3c0.2,0.1,0.4,0.1,0.6,0.1   c0.4,0,0.7-0.1,0.9-0.4c0.2-0.2,0.4-0.6,0.4-1v-0.3h-1.3V27.4z"/><path class="st3" d="M23.4,38c0.8,0,1.3-0.3,1.3-0.9c0-0.5-0.3-0.8-0.8-0.9c-0.3,0-0.5-0.1-0.8-0.1c-0.6-0.1-1-0.3-1.3-0.6   c-0.3-0.3-0.4-0.7-0.4-1.2c0-0.6,0.2-1,0.6-1.4c0.4-0.3,0.9-0.5,1.5-0.5c0.8,0,1.5,0.2,2.1,0.7L24.9,34c-0.5-0.3-1-0.5-1.6-0.5   c-0.3,0-0.5,0.1-0.7,0.2c-0.2,0.2-0.3,0.4-0.3,0.7c0,0.2,0.1,0.4,0.2,0.5c0.1,0.2,0.4,0.3,0.7,0.3c0.2,0,0.4,0.1,0.7,0.1   c0.6,0.1,1,0.3,1.3,0.6c0.3,0.3,0.4,0.7,0.4,1.2c0,1.2-0.8,1.8-2.2,1.9c-0.9,0-1.8-0.3-2.4-0.9l0.6-0.7C22.1,37.8,22.7,38,23.4,38z   "/><path class="st3" d="M26.5,35.8c0-0.7,0-1.2,0.1-1.5c0-0.3,0.1-0.5,0.2-0.6c0.2-0.3,0.4-0.6,0.7-0.8c0.3-0.2,0.8-0.4,1.3-0.4   c0.5,0,0.9,0.1,1.3,0.4c0.3,0.2,0.6,0.5,0.7,0.8c0.1,0.2,0.2,0.4,0.2,0.6c0,0.3,0.1,0.8,0.1,1.5c0,0.7,0,1.2-0.1,1.5   c0,0.3-0.1,0.5-0.2,0.6c-0.1,0.3-0.4,0.6-0.7,0.8c-0.3,0.2-0.8,0.4-1.3,0.4c-0.5,0-0.9-0.1-1.3-0.4c-0.3-0.2-0.6-0.5-0.7-0.8   c0-0.1-0.1-0.2-0.1-0.3c0-0.1-0.1-0.2-0.1-0.3C26.5,37,26.5,36.5,26.5,35.8z M27.4,35.8c0,0.6,0,1.1,0.1,1.3c0,0.2,0.1,0.4,0.3,0.5   c0.1,0.1,0.2,0.2,0.4,0.3c0.2,0.1,0.4,0.1,0.6,0.1c0.2,0,0.4,0,0.6-0.1c0.2-0.1,0.3-0.2,0.4-0.3c0.1-0.1,0.2-0.3,0.3-0.5   c0-0.2,0.1-0.6,0.1-1.3s0-1.1-0.1-1.3c0-0.2-0.1-0.4-0.3-0.5c-0.1-0.1-0.2-0.2-0.4-0.3c-0.2-0.1-0.4-0.1-0.6-0.1   c-0.2,0-0.4,0.1-0.6,0.1c-0.2,0.1-0.3,0.2-0.4,0.3c-0.1,0.1-0.2,0.3-0.3,0.5C27.5,34.7,27.4,35.1,27.4,35.8z"/><path class="st3" d="M32,35.8c0-0.7,0-1.2,0.1-1.5c0-0.3,0.1-0.5,0.2-0.6c0.2-0.3,0.4-0.6,0.7-0.8c0.3-0.2,0.8-0.4,1.3-0.4   c0.5,0,0.9,0.1,1.3,0.4c0.3,0.2,0.6,0.5,0.7,0.8c0.1,0.2,0.2,0.4,0.2,0.6c0,0.3,0.1,0.8,0.1,1.5c0,0.7,0,1.2-0.1,1.5   c0,0.3-0.1,0.5-0.2,0.6c-0.1,0.3-0.4,0.6-0.7,0.8c-0.3,0.2-0.8,0.4-1.3,0.4c-0.5,0-0.9-0.1-1.3-0.4c-0.3-0.2-0.6-0.5-0.7-0.8   c0-0.1-0.1-0.2-0.1-0.3c0-0.1-0.1-0.2-0.1-0.3C32,37,32,36.5,32,35.8z M32.9,35.8c0,0.6,0,1.1,0.1,1.3c0,0.2,0.1,0.4,0.3,0.5   c0.1,0.1,0.2,0.2,0.4,0.3C33.8,38,34,38,34.2,38c0.2,0,0.4,0,0.6-0.1c0.2-0.1,0.3-0.2,0.4-0.3c0.1-0.1,0.2-0.3,0.3-0.5   c0-0.2,0.1-0.6,0.1-1.3s0-1.1-0.1-1.3c0-0.2-0.1-0.4-0.3-0.5c-0.1-0.1-0.2-0.2-0.4-0.3c-0.2-0.1-0.4-0.1-0.6-0.1   c-0.2,0-0.4,0.1-0.6,0.1c-0.2,0.1-0.3,0.2-0.4,0.3c-0.1,0.1-0.2,0.3-0.3,0.5C33,34.7,32.9,35.1,32.9,35.8z"/><path class="st3" d="M37.7,32.5h0.9l2.9,4.6h0v-4.6h1V39h-0.9l-2.9-4.6h0V39h-1V32.5z"/></g><path class="st3" d="M32,17.7l-2.4,1.3c-0.3,0.2-0.7-0.1-0.6-0.5l0.5-2.7l-2-1.9c-0.3-0.3-0.1-0.7,0.2-0.8l2.7-0.4l1.2-2.5  c0.2-0.3,0.6-0.3,0.8,0l1.2,2.5l2.7,0.4c0.4,0.1,0.5,0.5,0.2,0.8l-2,1.9l0.5,2.7c0.1,0.4-0.3,0.6-0.6,0.5L32,17.7z"/><path class="st3" d="M32,46.3l2.4-1.3c0.3-0.2,0.7,0.1,0.6,0.5l-0.5,2.7l2,1.9c0.3,0.3,0.1,0.7-0.2,0.8l-2.7,0.4l-1.2,2.5  c-0.2,0.3-0.6,0.3-0.8,0l-1.2-2.5l-2.7-0.4c-0.4-0.1-0.5-0.5-0.2-0.8l2-1.9l-0.5-2.7c-0.1-0.4,0.3-0.6,0.6-0.5L32,46.3z"/><circle class="st3" cx="41.5" cy="17.5" r="1.5"/><circle class="st3" cx="22.5" cy="17.5" r="1.5"/><circle class="st3" cx="41.5" cy="46.5" r="1.5"/><circle class="st3" cx="22.5" cy="46.5" r="1.5"/></svg>